<svg xmlns="http://www.w3.org/2000/svg" xmlns:xlink="http://www.w3.org/1999/xlink" width="48.444" height="48.357" viewBox="0 0 48.444 48.357">
  <defs>
    <clipPath id="clip-path">
      <rect width="48.444" height="48.357" fill="none"/>
    </clipPath>
  </defs>
  <g id="check" clip-path="url(#clip-path)">
    <path id="Path_17774" data-name="Path 17774" d="M170.418,24.484a2.418,2.418,0,1,0,2.418,2.418A2.418,2.418,0,0,0,170.418,24.484Zm0,3.224a.806.806,0,1,1,.806-.806A.806.806,0,0,1,170.418,27.708Zm0,0" transform="translate(-151.076 -22.064)" fill="#3a1d0f"/>
    <path id="Path_17775" data-name="Path 17775" d="M198.447,338.1a2.418,2.418,0,1,1-4.835,0v-1.612H192V338.1a4.029,4.029,0,1,0,8.059,0v-1.612h-1.612Zm0,0" transform="translate(-172.659 -302.633)" fill="#3a1d0f"/>
    <path id="Path_17776" data-name="Path 17776" d="M45.855,24.633H43.518V23.021a6.447,6.447,0,1,0-12.894,0v1.612H28.287l-.693,6.447H16.23L14.3,43.974H4.835V10.127h5.641a1.612,1.612,0,0,0,1.612,1.612H26.594a1.612,1.612,0,0,0,1.612-1.612h5.641v5.641h1.612V8.515H28.206V6.9h8.059a.806.806,0,0,1,.806.806v8.059h1.612V7.709a2.418,2.418,0,0,0-2.418-2.418H28.206a1.612,1.612,0,0,0-1.612-1.612H23.83a.767.767,0,0,1-.694-.552,4.03,4.03,0,0,0-7.59,0,.767.767,0,0,1-.694.552H12.088a1.612,1.612,0,0,0-1.612,1.612H2.417A2.418,2.418,0,0,0,0,7.709V46.392a2.418,2.418,0,0,0,2.418,2.418H48.444ZM12.088,5.291h2.764a2.356,2.356,0,0,0,2.211-1.62,2.418,2.418,0,0,1,4.555,0,2.356,2.356,0,0,0,2.211,1.62h2.764v4.835H12.088Zm20.147,17.73a4.835,4.835,0,1,1,9.671,0v1.612H38.682V19.8H37.071v4.835H35.459V20.6H33.847v4.029H32.235ZM2.417,47.2a.806.806,0,0,1-.806-.806V7.709A.806.806,0,0,1,2.417,6.9h8.059V8.515H3.223V45.586h10.83L13.812,47.2Zm24.177,0H15.441l2.176-14.506H29.124L31.3,47.2Zm6.335,0L30.511,31.08h-1.3l.52-4.835h.888v2.418h1.612V26.244h9.671v2.418h1.612V26.244H44.4L46.649,47.2Zm0,0" transform="translate(0 -0.453)" fill="#3a1d0f"/>
    <path id="Path_17777" data-name="Path 17777" d="M73.5,126.828l-1.779,1.779H64v8.059h8.059v-6.113l2.585-2.585Zm-3.057,8.226H65.612v-4.835h4.5L68.03,132.3l-1.042-1.042-1.14,1.14,2.182,2.182,2.418-2.418Zm0,0" transform="translate(-57.553 -114.097)" fill="#3a1d0f"/>
    <path id="Path_17778" data-name="Path 17778" d="M72.059,226.552l2.585-2.585-1.14-1.14-1.779,1.779H64v8.059h8.059Zm-6.447,4.5v-4.835h4.5L68.029,228.3l-1.042-1.042-1.14,1.14,2.182,2.182,2.418-2.418v2.89Zm0,0" transform="translate(-57.553 -200.427)" fill="#3a1d0f"/>
    <path id="Path_17779" data-name="Path 17779" d="M64,344.543h8.059v-8.059H64Zm1.612-6.447h4.835v4.835H65.612Zm0,0" transform="translate(-57.553 -302.633)" fill="#3a1d0f"/>
    <path id="Path_17780" data-name="Path 17780" d="M176,160.484h8.059V162.1H176Zm0,0" transform="translate(-158.27 -144.363)" fill="#3a1d0f"/>
    <path id="Path_17781" data-name="Path 17781" d="M176,192.484h8.059V194.1H176Zm0,0" transform="translate(-158.27 -173.139)" fill="#3a1d0f"/>
    <path id="Path_17782" data-name="Path 17782" d="M176,264.484h8.059V266.1H176Zm0,0" transform="translate(-158.27 -237.886)" fill="#3a1d0f"/>
  </g>
</svg>
