<svg xmlns="http://www.w3.org/2000/svg" xmlns:xlink="http://www.w3.org/1999/xlink" width="18.187" height="22.268" viewBox="0 0 18.187 22.268">
  <defs>
    <clipPath id="clip-path">
      <rect width="18.187" height="22.268" fill="none"/>
    </clipPath>
  </defs>
  <g id="delete" clip-path="url(#clip-path)">
    <path id="Path_17770" data-name="Path 17770" d="M18.13,4.977,17.639,3.5a1.371,1.371,0,0,0-1.3-.938H12.2V1.219A1.221,1.221,0,0,0,10.985,0H7.2a1.221,1.221,0,0,0-1.219,1.22V2.565H1.85a1.371,1.371,0,0,0-1.3.938L.056,4.977A1.1,1.1,0,0,0,1.1,6.429h.514L2.748,20.417a2.024,2.024,0,0,0,2.005,1.851h8.91a2.023,2.023,0,0,0,2.005-1.851L16.8,6.429h.285A1.1,1.1,0,0,0,18.13,4.977ZM7.287,1.3H10.9v1.26H7.287Zm7.081,19.007a.712.712,0,0,1-.7.652H4.753a.712.712,0,0,1-.7-.652L2.925,6.429H15.49ZM1.382,5.125l.4-1.209a.068.068,0,0,1,.065-.047H16.337a.068.068,0,0,1,.065.047l.4,1.209Zm0,0" transform="translate(0 0)" fill="#ef5450"/>
    <path id="Path_17771" data-name="Path 17771" d="M268.915,178.641h.034a.652.652,0,0,0,.651-.618l.613-11.76a.652.652,0,1,0-1.3-.068l-.612,11.76A.652.652,0,0,0,268.915,178.641Zm0,0" transform="translate(-256.627 -158.375)" fill="#ef5450"/>
    <path id="Path_17772" data-name="Path 17772" d="M106.436,178.027a.652.652,0,0,0,.651.617h.036a.652.652,0,0,0,.616-.687L107.1,166.2a.652.652,0,1,0-1.3.071Zm0,0" transform="translate(-101.192 -158.378)" fill="#ef5450"/>
    <path id="Path_17773" data-name="Path 17773" d="M194.906,178.644a.652.652,0,0,0,.652-.652v-11.76a.652.652,0,1,0-1.3,0v11.76A.652.652,0,0,0,194.906,178.644Zm0,0" transform="translate(-185.805 -158.378)" fill="#ef5450"/>
  </g>
</svg>
