<svg xmlns="http://www.w3.org/2000/svg" xmlns:xlink="http://www.w3.org/1999/xlink" width="17.675" height="20" viewBox="0 0 17.675 20">
  <defs>
    <clipPath id="clip-path">
      <rect width="17.675" height="20" fill="none"/>
    </clipPath>
  </defs>
  <g id="PincelEdit" clip-path="url(#clip-path)">
    <g id="Group_51063" data-name="Group 51063">
      <g id="Group_51062" data-name="Group 51062">
        <g id="Group_51061" data-name="Group 51061">
          <path id="Path_16776" data-name="Path 16776" d="M1153.1,276.292h0m-.066.018.036.006.188.026a3.036,3.036,0,0,1,.532.094,4.976,4.976,0,0,1,2.982,2.554,3.266,3.266,0,0,1,.2.718.346.346,0,0,1-.062.092q-2.789,3.318-5.579,6.656l-.379.452-2.084,2.492-.469.56c-.608.73-1.221,1.46-1.835,2.182a.3.3,0,0,1-.1.076c-1.312.41-2.625.81-3.937,1.212l-.147.044-.453.142.066-.55.15-1.232c.117-.968.235-1.936.347-2.892a.286.286,0,0,1,.068-.17q5.182-6.183,10.35-12.366a.28.28,0,0,1,.125-.1M1153,275a.7.7,0,0,0-.112.008,1.6,1.6,0,0,0-.977.562q-5.168,6.183-10.348,12.366a1.568,1.568,0,0,0-.363.844c-.162,1.374-.331,2.754-.5,4.13l-.1.864a1.506,1.506,0,0,0,0,.248,1.086,1.086,0,0,0,.375.736,1.056,1.056,0,0,0,.684.242,1.158,1.158,0,0,0,.345-.052l.756-.23c1.365-.418,2.729-.834,4.091-1.258a1.574,1.574,0,0,0,.7-.47c.778-.914,1.546-1.836,2.314-2.754l2.084-2.492c1.985-2.37,3.971-4.746,5.956-7.106a1.359,1.359,0,0,0,.335-1.21l-.016-.082a3.9,3.9,0,0,0-.295-.946,6.307,6.307,0,0,0-3.726-3.2,4.279,4.279,0,0,0-.812-.156c-.1-.016-.2-.026-.3-.042A.657.657,0,0,0,1153,275Z" transform="translate(-1140.594 -275)" fill="#272a3f"/>
        </g>
      </g>
    </g>
    <g id="Group_51066" data-name="Group 51066" transform="translate(15.899 5.43)">
      <g id="Group_51065" data-name="Group 51065">
        <g id="Group_51064" data-name="Group 51064">
          <path id="Path_16777" data-name="Path 16777" d="M1148.565,277.715" transform="translate(-1148.565 -277.715)" fill="none" stroke="#272a3f" stroke-linecap="round" stroke-linejoin="round" stroke-width="0.65"/>
        </g>
      </g>
    </g>
    <g id="Group_51069" data-name="Group 51069" transform="translate(9.836 2.195)">
      <g id="Group_51068" data-name="Group 51068">
        <g id="Group_51067" data-name="Group 51067">
          <path id="Path_16778" data-name="Path 16778" d="M1150.922,281.393a.638.638,0,0,1-.417-.154l-4.747-3.994a.65.65,0,0,1,.834-1l4.747,3.994a.649.649,0,0,1,.08.916A.643.643,0,0,1,1150.922,281.393Z" transform="translate(-1145.526 -276.097)" fill="#272a3f"/>
        </g>
      </g>
    </g>
  </g>
</svg>
