<svg xmlns="http://www.w3.org/2000/svg" xmlns:xlink="http://www.w3.org/1999/xlink" width="37.564" height="51.404" viewBox="0 0 37.564 51.404">
  <defs>
    <clipPath id="clip-path">
      <rect width="37.565" height="51.404" fill="none"/>
    </clipPath>
  </defs>
  <g id="location" clip-path="url(#clip-path)">
    <g id="Group_55180" data-name="Group 55180">
      <g id="Group_55179" data-name="Group 55179" transform="translate(0)">
        <path id="Path_17835" data-name="Path 17835" d="M105.5,0H69.912a.989.989,0,0,0-.989.989V50.416a.989.989,0,0,0,.989.989H105.5a.989.989,0,0,0,.989-.989V.989A.989.989,0,0,0,105.5,0ZM72.877,49.427H70.9V1.977h1.977v47.45Zm31.633,0h-25.7V47.45h4.943a.989.989,0,1,0,0-1.977H78.808V11.862a.989.989,0,1,0-1.977,0V49.427H74.854V1.977h1.977V5.931a.989.989,0,0,0,1.977,0V1.977h25.7v47.45Z" transform="translate(-68.923)" fill="#3a1d0f"/>
      </g>
    </g>
    <g id="Group_55182" data-name="Group 55182" transform="translate(13.543 14.814)">
      <g id="Group_55181" data-name="Group 55181">
        <path id="Path_17836" data-name="Path 17836" d="M219.509,150.237a9.193,9.193,0,1,0-13,13l5.8,5.8a.988.988,0,0,0,1.4,0l5.8-5.8a9.193,9.193,0,0,0,0-13Zm-1.4,11.6-5.1,5.1-5.1-5.1a7.216,7.216,0,1,1,10.205,0Z" transform="translate(-203.815 -147.549)" fill="#3a1d0f"/>
      </g>
    </g>
    <g id="Group_55184" data-name="Group 55184" transform="translate(18.129 19.395)">
      <g id="Group_55183" data-name="Group 55183" transform="translate(0)">
        <path id="Path_17837" data-name="Path 17837" d="M257.357,194.53a4.608,4.608,0,1,0,1.35,3.258A4.578,4.578,0,0,0,257.357,194.53Zm-1.4,5.118a2.63,2.63,0,1,1,.771-1.86A2.613,2.613,0,0,1,255.959,199.649Z" transform="translate(-249.491 -193.181)" fill="#3a1d0f"/>
      </g>
    </g>
    <g id="Group_55186" data-name="Group 55186" transform="translate(7.908 7.908)">
      <g id="Group_55185" data-name="Group 55185" transform="translate(0)">
        <path id="Path_17838" data-name="Path 17838" d="M149.651,79.558a.951.951,0,0,0-.056-.186,1,1,0,0,0-.091-.17.932.932,0,0,0-.123-.15.947.947,0,0,0-.15-.123.917.917,0,0,0-.171-.091,1,1,0,0,0-.185-.057.973.973,0,0,0-.386,0,1,1,0,0,0-.185.057.911.911,0,0,0-.171.091.988.988,0,0,0-.364.443.951.951,0,0,0-.056.186.949.949,0,0,0,0,.386,1,1,0,0,0,.147.356.959.959,0,0,0,.273.273.981.981,0,0,0,.171.091,1,1,0,0,0,.185.056.949.949,0,0,0,.386,0,1,1,0,0,0,.185-.056.967.967,0,0,0,.171-.091.96.96,0,0,0,.273-.273.981.981,0,0,0,.091-.171.927.927,0,0,0,.056-.185.949.949,0,0,0,0-.386Z" transform="translate(-147.694 -78.762)" fill="#3a1d0f"/>
      </g>
    </g>
    <g id="Group_55188" data-name="Group 55188" transform="translate(16.805 45.472)">
      <g id="Group_55187" data-name="Group 55187" transform="translate(0)">
        <path id="Path_17839" data-name="Path 17839" d="M238.264,453.714a.929.929,0,0,0-.056-.185.969.969,0,0,0-.091-.171.934.934,0,0,0-.123-.15.945.945,0,0,0-.15-.123.918.918,0,0,0-.171-.091,1.007,1.007,0,0,0-.185-.057.974.974,0,0,0-.386,0,1.043,1.043,0,0,0-.186.057.973.973,0,0,0-.443.364,1,1,0,0,0-.147.356.966.966,0,0,0-.02.193,1,1,0,0,0,.29.7,1,1,0,0,0,.32.214,1.034,1.034,0,0,0,.186.057.971.971,0,0,0,.193.019.98.98,0,0,0,.193-.019,1,1,0,0,0,.185-.057.908.908,0,0,0,.171-.091.938.938,0,0,0,.15-.123,1,1,0,0,0,.29-.7A.974.974,0,0,0,238.264,453.714Z" transform="translate(-236.307 -452.918)" fill="#3a1d0f"/>
      </g>
    </g>
  </g>
</svg>
