<svg xmlns="http://www.w3.org/2000/svg" xmlns:xlink="http://www.w3.org/1999/xlink" width="36.269" height="55.094" viewBox="0 0 36.269 55.094">
  <defs>
    <clipPath id="clip-path">
      <rect width="36.269" height="55.094" fill="none"/>
    </clipPath>
  </defs>
  <g id="file" clip-path="url(#clip-path)">
    <g id="Group_55147" data-name="Group 55147">
      <path id="Path_17788" data-name="Path 17788" d="M36.268,10.777c0-.012,0-.024,0-.035a1.075,1.075,0,0,0-.017-.138h0a1.129,1.129,0,0,0-.037-.134l-.012-.033a1.163,1.163,0,0,0-.053-.122l0-.006a1.056,1.056,0,0,0-.074-.119l-.021-.029a1.086,1.086,0,0,0-.093-.108L26.217.315a1.086,1.086,0,0,0-.108-.093L26.08.2a1.02,1.02,0,0,0-.118-.074l-.008,0a1.127,1.127,0,0,0-.12-.053L25.8.057A1.1,1.1,0,0,0,25.666.02h0A1.141,1.141,0,0,0,25.528,0l-.035,0-.037,0H1.076A1.076,1.076,0,0,0,0,1.076V47.133a1.076,1.076,0,0,0,1.076,1.076h16.2v5.808a1.076,1.076,0,0,0,1.648.912l4.1-2.571,4.1,2.571a1.076,1.076,0,0,0,1.648-.912V48.209h6.424a1.076,1.076,0,0,0,1.076-1.076V10.813c0-.012,0-.024,0-.037Zm-9.735-7.1L32.6,9.737H26.532ZM16.746,33.236a3.305,3.305,0,0,1-.2-.679,3.193,3.193,0,0,1,.554-.4,3.906,3.906,0,0,0,1.133-.947,3.88,3.88,0,0,0,.562-1.378,3.48,3.48,0,0,1,.2-.624,1.346,1.346,0,0,1,.266-.019c.12,0,.254.007.4.014.163.008.331.016.507.016a3.051,3.051,0,0,0,.984-.138,4.058,4.058,0,0,0,1.242-.765,2.758,2.758,0,0,1,.63-.432,2.571,2.571,0,0,1,.64.432,4.06,4.06,0,0,0,1.242.765,3.049,3.049,0,0,0,.984.138c.175,0,.344-.008.507-.016.142-.007.276-.014.4-.014a1.315,1.315,0,0,1,.266.019,3.448,3.448,0,0,1,.2.624,3.881,3.881,0,0,0,.562,1.378,3.9,3.9,0,0,0,1.133.947,3.227,3.227,0,0,1,.554.4,3.328,3.328,0,0,1-.2.679,4.261,4.261,0,0,0-.341,1.478,4.275,4.275,0,0,0,.341,1.478,3.305,3.305,0,0,1,.2.679,3.227,3.227,0,0,1-.554.4,3.072,3.072,0,0,0-1.7,2.324,3.493,3.493,0,0,1-.2.624,1.349,1.349,0,0,1-.266.019c-.12,0-.254-.007-.4-.014-.163-.008-.331-.016-.507-.016a3.049,3.049,0,0,0-.984.138,4.069,4.069,0,0,0-1.242.765,2.681,2.681,0,0,1-.635.432,2.68,2.68,0,0,1-.634-.432,4.074,4.074,0,0,0-1.242-.765,3.051,3.051,0,0,0-.984-.138c-.175,0-.344.008-.507.016-.142.007-.276.014-.4.014a1.349,1.349,0,0,1-.266-.019,3.48,3.48,0,0,1-.2-.624,3.872,3.872,0,0,0-.562-1.378,3.9,3.9,0,0,0-1.133-.947,3.2,3.2,0,0,1-.554-.4,3.335,3.335,0,0,1,.2-.679,4.261,4.261,0,0,0,.341-1.478,4.271,4.271,0,0,0-.341-1.478Zm9.872,18.836-3.022-1.9a1.078,1.078,0,0,0-1.144,0l-3.022,1.9V42.389c.114,0,.227-.008.335-.013.142-.008.277-.014.4-.014a1.055,1.055,0,0,1,.3.028,2.9,2.9,0,0,1,.572.4,3.169,3.169,0,0,0,1.984.908,3.169,3.169,0,0,0,1.984-.908,2.885,2.885,0,0,1,.572-.4,1.062,1.062,0,0,1,.3-.028c.121,0,.256.007.4.014.109.005.221.01.335.013v9.684Zm2.152-6.015V41.522a3.916,3.916,0,0,0,.567-1.386,2.769,2.769,0,0,1,.214-.644,2.793,2.793,0,0,1,.547-.4,3.036,3.036,0,0,0,1.451-1.539,3.109,3.109,0,0,0-.227-2.1,2.907,2.907,0,0,1-.21-.737,2.9,2.9,0,0,1,.21-.737,3.11,3.11,0,0,0,.227-2.1A3.036,3.036,0,0,0,30.1,30.336a2.828,2.828,0,0,1-.547-.4,2.781,2.781,0,0,1-.214-.644,3,3,0,0,0-1.006-1.828,2.557,2.557,0,0,0-1.543-.429c-.174,0-.342.008-.5.017-.142.007-.277.014-.4.014a1.057,1.057,0,0,1-.3-.028,2.872,2.872,0,0,1-.572-.4,3.173,3.173,0,0,0-1.984-.907,3.171,3.171,0,0,0-1.984.907,2.89,2.89,0,0,1-.572.4,1.059,1.059,0,0,1-.3.028c-.121,0-.256-.007-.4-.014-.162-.008-.33-.016-.5-.016a2.554,2.554,0,0,0-1.543.429,3,3,0,0,0-1.007,1.828,2.792,2.792,0,0,1-.214.644,2.828,2.828,0,0,1-.547.4A3.038,3.038,0,0,0,14.5,31.875a3.11,3.11,0,0,0,.227,2.1,2.9,2.9,0,0,1,.21.737,2.907,2.907,0,0,1-.21.737,3.11,3.11,0,0,0-.227,2.1,3.04,3.04,0,0,0,1.451,1.538,2.815,2.815,0,0,1,.547.4,2.792,2.792,0,0,1,.214.644,3.915,3.915,0,0,0,.567,1.386v4.536H2.152V2.152H24.38v8.661a1.076,1.076,0,0,0,1.076,1.076h8.661V46.057Zm0,0" transform="translate(0 0)" fill="#3a1d0f" fill-rule="evenodd"/>
      <path id="Path_17789" data-name="Path 17789" d="M49.939,92.644H63.8a1.076,1.076,0,0,0,0-2.152H49.939a1.076,1.076,0,0,0,0,2.152Zm0,0" transform="translate(-43.605 -80.755)" fill="#3a1d0f" fill-rule="evenodd"/>
      <path id="Path_17790" data-name="Path 17790" d="M73.661,140.969H49.94a1.076,1.076,0,1,0,0,2.152H73.661a1.076,1.076,0,1,0,0-2.152Zm0,0" transform="translate(-43.606 -125.8)" fill="#3a1d0f" fill-rule="evenodd"/>
      <path id="Path_17791" data-name="Path 17791" d="M69.357,191.445H49.94a1.076,1.076,0,1,0,0,2.152H69.357a1.076,1.076,0,0,0,0-2.152Zm0,0" transform="translate(-43.606 -170.844)" fill="#3a1d0f" fill-rule="evenodd"/>
      <path id="Path_17792" data-name="Path 17792" d="M270.385,191.445a1.076,1.076,0,1,0,1.076,1.076A1.078,1.078,0,0,0,270.385,191.445Zm0,0" transform="translate(-240.33 -170.844)" fill="#3a1d0f" fill-rule="evenodd"/>
    </g>
  </g>
</svg>
