<svg height="512pt" viewBox="-44 0 512 512" width="512pt" xmlns="http://www.w3.org/2000/svg"><path d="m189.082031 26.832031h-39.164062c-4.144531 0-7.5 3.359375-7.5 7.5 0 4.144531 3.355469 7.5 7.5 7.5h39.164062c4.144531 0 7.5-3.355469 7.5-7.5 0-4.140625-3.355469-7.5-7.5-7.5zm0 0"/><path d="m104.566406 162.683594h-.109375c-.023437 0-.046875 0-.066406 0-4.113281 0-7.460937 3.3125-7.5 7.433594-.035156 4.144531 3.292969 7.53125 7.433594 7.566406h.109375.066406c4.113281 0 7.464844-3.3125 7.5-7.429688.035156-4.144531-3.289062-7.53125-7.433594-7.570312zm0 0"/><path d="m132.675781 162.683594h-.109375c-.019531 0-.042968 0-.066406 0-4.109375 0-7.460938 3.3125-7.5 7.433594-.035156 4.144531 3.292969 7.53125 7.433594 7.566406h.109375.066406c4.113281 0 7.464844-3.3125 7.5-7.429688.035156-4.144531-3.292969-7.53125-7.433594-7.570312zm0 0"/><path d="m160.785156 162.683594h-.109375c-.023437 0-.042969 0-.066406 0-4.113281 0-7.460937 3.3125-7.5 7.433594-.035156 4.144531 3.292969 7.53125 7.433594 7.566406h.109375.066406c4.113281 0 7.464844-3.3125 7.5-7.429688.039062-4.144531-3.289062-7.53125-7.433594-7.570312zm0 0"/><path d="m188.894531 162.683594h-.109375c-.019531 0-.042968 0-.066406 0-4.109375 0-7.460938 3.3125-7.5 7.433594-.035156 4.144531 3.292969 7.53125 7.433594 7.566406h.109375.066406c4.113281 0 7.464844-3.3125 7.5-7.429688.035156-4.144531-3.292969-7.53125-7.433594-7.570312zm0 0"/><path d="m217.003906 162.683594h-.109375c-.023437 0-.042969 0-.066406 0-4.109375 0-7.460937 3.3125-7.5 7.433594-.035156 4.144531 3.292969 7.53125 7.433594 7.566406h.109375.070312c4.109375 0 7.460938-3.3125 7.496094-7.433594.039062-4.140625-3.292969-7.527344-7.433594-7.566406zm0 0"/><path d="m104.5 117.09375c4.144531 0 7.5-3.359375 7.5-7.5 0-4.144531-3.355469-7.5-7.5-7.5h-23.699219c-4.144531 0-7.5 3.355469-7.5 7.5 0 4.140625 3.355469 7.5 7.5 7.5zm0 0"/><path d="m173.082031 214.285156h-92.28125c-4.144531 0-7.5 3.355469-7.5 7.5 0 4.140625 3.355469 7.5 7.5 7.5h92.28125c4.144531 0 7.5-3.359375 7.5-7.5 0-4.144531-3.355469-7.5-7.5-7.5zm0 0"/><path d="m80.800781 250.78125h80.28125c4.144531 0 7.5-3.355469 7.5-7.5 0-4.140625-3.355469-7.5-7.5-7.5h-80.28125c-4.144531 0-7.5 3.359375-7.5 7.5 0 4.144531 3.355469 7.5 7.5 7.5zm0 0"/><path d="m173.082031 387.5h-23.164062c-4.144531 0-7.5 3.355469-7.5 7.5s3.355469 7.5 7.5 7.5h23.164062c4.144531 0 7.5-3.355469 7.5-7.5s-3.355469-7.5-7.5-7.5zm0 0"/><path d="m80.800781 402.5h46.140625c4.144532 0 7.5-3.355469 7.5-7.5s-3.355468-7.5-7.5-7.5h-46.140625c-4.144531 0-7.5 3.355469-7.5 7.5s3.355469 7.5 7.5 7.5zm0 0"/><path d="m80.800781 375.625h11.847657c4.144531 0 7.5-3.355469 7.5-7.5s-3.355469-7.5-7.5-7.5h-11.847657c-4.144531 0-7.5 3.355469-7.5 7.5s3.355469 7.5 7.5 7.5zm0 0"/><path d="m423 369.511719c0-31.015625-12.402344-59.1875-32.5-79.824219v-27.359375c0-4.140625-3.355469-7.5-7.5-7.5s-7.5 3.359375-7.5 7.5v14.390625c-4.742188-3.433594-9.753906-6.515625-15-9.203125v-53.945313c0-28.671874-23.328125-52-52-52s-52 23.328126-52 52v53.933594c-5.210938 2.652344-10.226562 5.710938-15 9.15625v-63.089844c0-36.945312 30.054688-67 67-67s67 30.054688 67 67v16.101563c0 4.140625 3.355469 7.5 7.5 7.5s7.5-3.359375 7.5-7.5v-16.101563c0-34.4375-21.351562-63.964843-51.5-76.09375v-45.476562c0-9.648438-7.851562-17.5-17.5-17.5h-2.917969v-47c0-15.164062-12.335937-27.5-27.5-27.5h-243.164062c-15.164063 0-27.5 12.335938-27.5 27.5v47h-2.917969c-9.648438 0-17.5 7.851562-17.5 17.5v79c0 9.648438 7.851562 17.5 17.5 17.5h2.917969v17h-2.917969c-9.648438 0-17.5 7.851562-17.5 17.5v19c0 9.648438 7.851562 17.5 17.5 17.5h2.917969v8h-2.917969c-9.648438 0-17.5 7.851562-17.5 17.5v19c0 9.648438 7.851562 17.5 17.5 17.5h2.917969v46.171875c0 4.140625 3.355469 7.5 7.5 7.5s7.5-3.359375 7.5-7.5v-302.171875h268.164062v66.230469c-12.6875.753906-24.601562 4.410156-35.097656 10.304687-3.847656-3.125-8.664063-4.851562-13.632813-4.851562h-170.703124c-11.9375 0-21.648438 9.710937-21.648438 21.648437v22.703125c0 11.9375 9.710938 21.648438 21.648438 21.648438h143.03125c-.433594 3.40625-.679688 6.867187-.679688 10.386718v76.035157c-16.46875 16.90625-27.394531 38.546875-31.085938 61.890625-.644531 4.09375 2.144532 7.933594 6.238282 8.582031 4.09375.644531 7.933594-2.148437 8.578125-6.238281 3.65625-23.132813 15.5-44.347656 33.34375-59.730469 18.03125-15.539063 41.085937-24.097656 64.925781-24.097656 54.863281 0 99.5 44.636719 99.5 99.5s-44.636719 99.5-99.5 99.5c-24.007812 0-47.1875-8.667969-65.273438-24.402344-17.910156-15.585937-29.679687-37.027344-33.140624-60.378906-.609376-4.097657-4.421876-6.929688-8.519532-6.320313s-6.929687 4.421875-6.320312 8.519532c3.328125 22.449218 13.339844 43.34375 28.539062 60.070312h-188.367187v-46.171875c0-4.140625-3.355469-7.5-7.5-7.5s-7.5 3.359375-7.5 7.5v84.171875c0 15.164062 12.335937 27.5 27.5 27.5h243.164062c15.164063 0 27.5-12.335938 27.5-27.5v-.9375c58.429688-5.121094 104.417969-54.3125 104.417969-114.050781zm-101.5-280.011719c1.378906 0 2.5 1.121094 2.5 2.5v41.058594c-1.785156-.34375-3.59375-.621094-5.417969-.847656v-42.710938zm-304 84c-1.378906 0-2.5-1.121094-2.5-2.5v-79c0-1.378906 1.121094-2.5 2.5-2.5h2.917969v84zm0 71c-1.378906 0-2.5-1.121094-2.5-2.5v-19c0-1.378906 1.121094-2.5 2.5-2.5h2.917969v24zm0 62c-1.378906 0-2.5-1.121094-2.5-2.5v-19c0-1.378906 1.121094-2.5 2.5-2.5h2.917969v24zm17.917969-256v-23c0-6.894531 5.605469-12.5 12.5-12.5h243.164062c6.894531 0 12.5 5.605469 12.5 12.5v23zm48.730469 137.683594c-3.667969 0-6.648438-2.980469-6.648438-6.648438v-22.703125c0-3.664062 2.980469-6.648437 6.648438-6.648437h170.070312c-10.820312 9.578125-19.09375 21.960937-23.675781 36zm261.351562 25.386718v47.578126c-8.5625-2.929688-17.582031-4.871094-26.917969-5.6875v-77.484376c15.515625 4.402344 26.917969 18.6875 26.917969 35.59375zm-74 0c0-18.734374 13.996094-34.25 32.082031-36.664062v78.214844c-10.992187.472656-21.792969 2.523437-32.082031 6.039062zm19.582031 283.429688h-243.164062c-6.894531 0-12.5-5.605469-12.5-12.5v-23h204.910156c18.335937 13.597656 40.363281 21.421875 63.253906 22.402344v.597656c0 6.894531-5.605469 12.5-12.5 12.5zm0 0"/><path d="m308.5 442.101562c12.042969 0 21.839844-9.796874 21.839844-21.839843v-19.347657c6.746094-6.125 10.675781-14.863281 10.675781-24.078124 0-9.234376-3.949219-18.0625-10.828125-24.226563-6.878906-6.160156-16.121094-9.101563-25.359375-8.085937-14.929687 1.648437-26.972656 13.679687-28.636719 28.609374-1.167968 10.5 2.789063 20.808594 10.46875 27.777344v19.351563c0 12.042969 9.796875 21.839843 21.839844 21.839843zm-17.398438-67.308593c.890626-8.015625 7.359376-14.472657 15.375-15.359375.683594-.074219 1.359376-.113282 2.035157-.113282 4.332031 0 8.414062 1.550782 11.667969 4.460938 3.707031 3.324219 5.835937 8.082031 5.835937 13.054688 0 5.699218-2.796875 11.066406-7.480469 14.347656-2.003906 1.40625-3.195312 3.699218-3.195312 6.144531v22.9375c0 3.769531-3.066406 6.839844-6.839844 6.839844-3.769531 0-6.839844-3.070313-6.839844-6.839844v-22.9375c0-2.445313-1.191406-4.738281-3.191406-6.140625-5.339844-3.746094-8.097656-9.875-7.367188-16.394531zm0 0"/></svg>