<svg xmlns="http://www.w3.org/2000/svg" xmlns:xlink="http://www.w3.org/1999/xlink" width="36.48" height="36.479" viewBox="0 0 36.48 36.479">
  <defs>
    <clipPath id="clip-path">
      <rect width="36.48" height="36.479" fill="none"/>
    </clipPath>
  </defs>
  <g id="placeholder" clip-path="url(#clip-path)">
    <g id="Group_55160" data-name="Group 55160">
      <path id="Path_17802" data-name="Path 17802" d="M28.61,20.512a4.256,4.256,0,1,0-4.256-4.256A4.261,4.261,0,0,0,28.61,20.512Zm0-7.3a3.04,3.04,0,1,1-3.04,3.04A3.043,3.043,0,0,1,28.61,13.216Z" transform="translate(-9.546 -4.704)" fill="#3a1d0f"/>
      <path id="Path_17803" data-name="Path 17803" d="M23.659,33.292,32.986,19.82c3.5-4.664,2.992-12.33-1.083-16.4a11.658,11.658,0,0,0-16.489,0C11.34,7.49,10.833,15.157,14.318,19.8ZM16.275,4.275a10.443,10.443,0,0,1,14.769,0c3.678,3.678,4.131,10.6.956,14.834L23.659,31.155,15.3,19.091C12.143,14.876,12.6,7.952,16.275,4.275Z" transform="translate(-4.703 0)" fill="#3a1d0f"/>
      <path id="Path_17804" data-name="Path 17804" d="M.608,57.471l-.43.43a.608.608,0,1,0,.86.86l.43-.43a.608.608,0,1,0-.86-.86Z" transform="translate(0.001 -22.459)" fill="#3a1d0f"/>
      <path id="Path_17805" data-name="Path 17805" d="M8.224,52a.608.608,0,1,0,0,1.216H9.331a.608.608,0,1,0,0-1.216Z" transform="translate(-2.985 -20.385)" fill="#3a1d0f"/>
      <path id="Path_17806" data-name="Path 17806" d="M5.1,53.61a.607.607,0,0,0-.86,0l-.782.782a.608.608,0,1,0,.86.86L5.1,54.47A.607.607,0,0,0,5.1,53.61Z" transform="translate(-1.285 -20.946)" fill="#3a1d0f"/>
      <path id="Path_17807" data-name="Path 17807" d="M19.147,52a.608.608,0,1,0,0,1.216h1.107a.608.608,0,0,0,0-1.216Z" transform="translate(-7.267 -20.385)" fill="#3a1d0f"/>
      <path id="Path_17808" data-name="Path 17808" d="M13.685,52a.608.608,0,1,0,0,1.216h1.107a.608.608,0,1,0,0-1.216Z" transform="translate(-5.126 -20.385)" fill="#3a1d0f"/>
      <path id="Path_17809" data-name="Path 17809" d="M24.608,52a.608.608,0,1,0,0,1.216h.608a.608.608,0,0,0,0-1.216Z" transform="translate(-9.408 -20.385)" fill="#3a1d0f"/>
      <path id="Path_17810" data-name="Path 17810" d="M.607,51.109a.606.606,0,0,0,.43-.178l2.357-2.357a1.1,1.1,0,0,1,.212-.165l.117-.063a.555.555,0,0,1,.064-.035l.227-.07a1.282,1.282,0,0,1,.24-.024h9.12a.608.608,0,1,0,0-1.216H4.255a2.509,2.509,0,0,0-.481.048,1.7,1.7,0,0,0-.17.048l-.08.024a1.644,1.644,0,0,0-.2.064,1.753,1.753,0,0,0-.208.105l-.058.032a1.426,1.426,0,0,0-.156.089,2.429,2.429,0,0,0-.371.3L.177,50.071a.608.608,0,0,0,.43,1.038Z" transform="translate(0.001 -18.425)" fill="#3a1d0f"/>
      <path id="Path_17811" data-name="Path 17811" d="M57.9,47.646a.606.606,0,0,0,.43-.178l.43-.43a.608.608,0,1,0-.86-.86l-.43.43a.608.608,0,0,0,.43,1.038Z" transform="translate(-22.459 -18.032)" fill="#3a1d0f"/>
      <path id="Path_17812" data-name="Path 17812" d="M53.859,49.905l-.918.918a.608.608,0,1,0,.86.86l.918-.918a.608.608,0,0,0-.86-.86Z" transform="translate(-20.683 -19.494)" fill="#3a1d0f"/>
      <path id="Path_17813" data-name="Path 17813" d="M47.283,52a.608.608,0,0,0,0,1.216h1.3a.608.608,0,0,0,0-1.216Z" transform="translate(-18.296 -20.385)" fill="#3a1d0f"/>
      <path id="Path_17814" data-name="Path 17814" d="M40.878,52a.608.608,0,0,0,0,1.216h1.3a.608.608,0,0,0,0-1.216Z" transform="translate(-15.786 -20.385)" fill="#3a1d0f"/>
      <path id="Path_17815" data-name="Path 17815" d="M35.608,52a.608.608,0,0,0,0,1.216h.608a.608.608,0,1,0,0-1.216Z" transform="translate(-13.72 -20.385)" fill="#3a1d0f"/>
      <path id="Path_17816" data-name="Path 17816" d="M37.793,52.42l-2.357,2.357a1.112,1.112,0,0,1-.211.165L35.112,55a.693.693,0,0,1-.072.038.471.471,0,0,1-.059.018l-.169.051a1.177,1.177,0,0,1-.236.024H7.149l-.922.742a.608.608,0,1,0,.762.947l.589-.474h27a2.384,2.384,0,0,0,.474-.047,1.472,1.472,0,0,0,.179-.049l.076-.022a1.664,1.664,0,0,0,.2-.067,1.852,1.852,0,0,0,.2-.1l.06-.033a1.334,1.334,0,0,0,.15-.085,2.41,2.41,0,0,0,.373-.306l2.357-2.357a.608.608,0,1,0-.86-.86Z" transform="translate(-2.351 -20.48)" fill="#3a1d0f"/>
      <path id="Path_17817" data-name="Path 17817" d="M39,46.432a.608.608,0,0,0,.608.608h7.4l2-2a.608.608,0,0,0-.86-.86L46.5,45.824h-6.9A.608.608,0,0,0,39,46.432Z" transform="translate(-15.288 -17.248)" fill="#3a1d0f"/>
    </g>
  </g>
</svg>
