<svg xmlns="http://www.w3.org/2000/svg" xmlns:xlink="http://www.w3.org/1999/xlink" width="15.482" height="21" viewBox="0 0 15.482 21">
  <defs>
    <clipPath id="clip-path">
      <rect width="15.483" height="21" fill="none"/>
    </clipPath>
  </defs>
  <g id="Lock" clip-path="url(#clip-path)">
    <g id="Group_51287" data-name="Group 51287" transform="translate(5.763 11.308)">
      <g id="Group_51286" data-name="Group 51286">
        <g id="Group_51285" data-name="Group 51285">
          <path id="Path_16837" data-name="Path 16837" d="M989.987,453.782a.983.983,0,0,1,.981.984,1,1,0,0,1-.305.716l-.311.294V458a.365.365,0,1,1-.73,0v-2.222l-.311-.294a1,1,0,0,1-.305-.716.983.983,0,0,1,.981-.984m0-1a1.986,1.986,0,0,0-1.362,3.424V458a1.362,1.362,0,1,0,2.725,0v-1.792a1.986,1.986,0,0,0-1.362-3.424Z" transform="translate(-988.008 -452.782)" fill="#6e7990"/>
        </g>
      </g>
    </g>
    <g id="Group_51290" data-name="Group 51290">
      <g id="Group_51289" data-name="Group 51289">
        <g id="Group_51288" data-name="Group 51288">
          <path id="Path_16838" data-name="Path 16838" d="M998.9,468.128H986.822a1.707,1.707,0,0,1-1.7-1.708v-9.388a1.706,1.706,0,0,1,1.7-1.706H988V452a4.9,4.9,0,0,1,1.592-3.606,4.816,4.816,0,0,1,3.738-1.248,4.976,4.976,0,0,1,4.4,4.984v3.192H998.9a1.706,1.706,0,0,1,1.7,1.706v9.388A1.707,1.707,0,0,1,998.9,468.128Zm-12.076-11.8a.705.705,0,0,0-.706.706v9.388a.706.706,0,0,0,.706.708H998.9a.706.706,0,0,0,.706-.708v-9.388a.705.705,0,0,0-.706-.706h-2.172v-4.192a3.97,3.97,0,0,0-3.493-3.988,3.777,3.777,0,0,0-2.974.992A3.889,3.889,0,0,0,988.995,452v4.322Z" transform="translate(-985.119 -447.128)" fill="#6e7990"/>
        </g>
      </g>
    </g>
    <g id="Group_51293" data-name="Group 51293" transform="translate(3.376 8.197)">
      <g id="Group_51292" data-name="Group 51292">
        <g id="Group_51291" data-name="Group 51291">
          <rect id="Rectangle_1542" data-name="Rectangle 1542" width="8.731" height="1" fill="#6e7990"/>
        </g>
      </g>
    </g>
  </g>
</svg>
