<svg xmlns="http://www.w3.org/2000/svg" xmlns:xlink="http://www.w3.org/1999/xlink" width="37.979" height="27" viewBox="0 0 37.979 27">
  <defs>
    <clipPath id="clip-path">
      <rect width="37.979" height="27" fill="none"/>
    </clipPath>
  </defs>
  <g id="mail" clip-path="url(#clip-path)">
    <g id="Group_55159" data-name="Group 55159">
      <g id="Group_55158" data-name="Group 55158" transform="translate(6.615 13.017)">
        <path id="Path_17798" data-name="Path 17798" d="M26.514,22.947a.606.606,0,0,1-.419-.167L19.048,16.17a.612.612,0,1,1,.839-.892l7.047,6.611a.612.612,0,0,1-.42,1.058Z" transform="translate(-2.379 -15.111)" fill="#3a1d0f"/>
        <path id="Path_17799" data-name="Path 17799" d="M6.014,22.947a.612.612,0,0,1-.42-1.058l7.049-6.611a.612.612,0,1,1,.839.892L6.433,22.781A.606.606,0,0,1,6.014,22.947Z" transform="translate(-5.402 -15.111)" fill="#3a1d0f"/>
      </g>
      <path id="Path_17800" data-name="Path 17800" d="M34.917,31.482H3.062A3.065,3.065,0,0,1,0,28.42V7.544A3.065,3.065,0,0,1,3.062,4.482H34.917a3.065,3.065,0,0,1,3.062,3.062V28.42A3.065,3.065,0,0,1,34.917,31.482ZM3.062,5.707A1.839,1.839,0,0,0,1.225,7.544V28.42a1.839,1.839,0,0,0,1.837,1.837H34.917a1.839,1.839,0,0,0,1.837-1.837V7.544a1.839,1.839,0,0,0-1.837-1.837Z" transform="translate(0 -4.482)" fill="#3a1d0f"/>
      <path id="Path_17801" data-name="Path 17801" d="M18.842,20.88a3.425,3.425,0,0,1-2.248-.811L.869,6.352a.612.612,0,1,1,.8-.923L17.4,19.145a2.292,2.292,0,0,0,2.887,0L35.989,5.45a.613.613,0,1,1,.806.923L21.09,20.068A3.422,3.422,0,0,1,18.842,20.88Z" transform="translate(0.148 -4.303)" fill="#3a1d0f"/>
    </g>
  </g>
</svg>
