<svg xmlns="http://www.w3.org/2000/svg" xmlns:xlink="http://www.w3.org/1999/xlink" width="21.298" height="21.287" viewBox="0 0 21.298 21.287">
  <defs>
    <clipPath id="clip-path">
      <rect width="21.299" height="21.287" fill="none"/>
    </clipPath>
  </defs>
  <g id="SearchWhite" clip-path="url(#clip-path)">
    <g id="Group_49884" data-name="Group 49884">
      <g id="Group_49883" data-name="Group 49883">
        <g id="Group_49882" data-name="Group 49882">
          <path id="Path_16436" data-name="Path 16436" d="M662.03,191.032a8.928,8.928,0,1,1,8.934-8.928A8.942,8.942,0,0,1,662.03,191.032Zm0-16.558a7.629,7.629,0,1,0,7.634,7.629A7.64,7.64,0,0,0,662.03,174.474Z" transform="translate(-653.096 -173.175)" fill="#fff"/>
        </g>
      </g>
    </g>
    <g id="Group_49887" data-name="Group 49887" transform="translate(14.144 14.133)">
      <g id="Group_49886" data-name="Group 49886">
        <g id="Group_49885" data-name="Group 49885">
          <path id="Path_16437" data-name="Path 16437" d="M666.674,187.4a.655.655,0,0,1-.46-.19l-5.856-5.854a.65.65,0,0,1,.918-.919l5.856,5.854a.65.65,0,0,1-.458,1.109Z" transform="translate(-660.168 -180.246)" fill="#fff"/>
        </g>
      </g>
    </g>
  </g>
</svg>
