<svg xmlns="http://www.w3.org/2000/svg" xmlns:xlink="http://www.w3.org/1999/xlink" width="25" height="20.154" viewBox="0 0 25 20.154">
  <defs>
    <clipPath id="clip-path">
      <rect width="25" height="20.154" fill="none"/>
    </clipPath>
  </defs>
  <g id="StoreButActive" clip-path="url(#clip-path)">
    <g id="Group_50767" data-name="Group 50767">
      <g id="Group_50766" data-name="Group 50766">
        <g id="Group_50765" data-name="Group 50765">
          <g id="Group_50764" data-name="Group 50764">
            <path id="Path_16686" data-name="Path 16686" d="M543.636,533.588H542.37v-9.046a2.774,2.774,0,0,0,1.744-3.238l-.588-2.494-.01-.022a.5.5,0,0,0-.04-.1l-.022-.042-.008-.014-2.59-3.532a1.739,1.739,0,0,0-1.4-.708H523.714a1.733,1.733,0,0,0-1.4.708l-2.59,3.532-.016.028-.024.048a.379.379,0,0,0-.038.1l-.01.03-.418,2.664a2.764,2.764,0,0,0,1.784,3.03v9.048H519.74a.481.481,0,1,0,0,.962h23.9a.481.481,0,1,0,0-.962Zm-.8-10.523a1.807,1.807,0,0,1-1.422.688h-.4a1.824,1.824,0,0,1-1.808-1.671l-.028-.36h0l-.182-2.323h3.686l.5,2.125A1.8,1.8,0,0,1,542.834,523.065Zm-4.62-1.267a1.818,1.818,0,0,1-1.808,1.955h-.23a1.816,1.816,0,0,1-1.814-1.813V519.4h3.662l.16,2.025Zm-1.368-6.44.968,3.082h-3.5l-.322-3.082Zm-7.072,4.042H533.4v2.54a1.813,1.813,0,1,1-3.626,0Zm3.572-.959h-3.52l.322-3.082h2.876Zm-4.486,0h-3.5l.97-3.082h2.854Zm-3.87,2.984.158-2.025h3.664v2.54A1.816,1.816,0,0,1,527,523.752h-.23a1.815,1.815,0,0,1-1.808-1.955Zm1.586,3.278c.064.006.128.01.192.01H527a2.773,2.773,0,0,1,4.588,0,2.775,2.775,0,0,1,4.59,0h.23a2.594,2.594,0,0,0,.394-.032v4.645a.772.772,0,0,1-.772.77h-8.68a.772.772,0,0,1-.772-.77Zm12.882-9.344a.768.768,0,0,1,.622.314l2.03,2.768h-3.288l-.968-3.082Zm-16.366.314a.774.774,0,0,1,.622-.314h1.606l-.97,3.082h-3.286Zm-2.92,5.988.354-2.261h3.658L524,521.721h0l-.028.36a1.824,1.824,0,0,1-1.808,1.671h-.2a1.815,1.815,0,0,1-1.792-2.093Zm1.8,11.928v-8.876h.2a2.789,2.789,0,0,0,2.3-1.231,3.049,3.049,0,0,0,.264.342,2.79,2.79,0,0,0,.886.638v4.865a1.734,1.734,0,0,0,1.732,1.731h8.68a1.734,1.734,0,0,0,1.732-1.731v-4.873a.646.646,0,0,0-.016-.086,2.773,2.773,0,0,0,.7-.544,2.854,2.854,0,0,0,.266-.342,2.786,2.786,0,0,0,2.3,1.231h.4v8.876Z" transform="translate(-519.188 -514.396)" fill="#3a1d0f"/>
          </g>
        </g>
      </g>
    </g>
    <path id="Path_17749" data-name="Path 17749" d="M543.636,533.588H542.37v-9.046a2.774,2.774,0,0,0,1.744-3.238l-.588-2.494-.01-.022a.5.5,0,0,0-.04-.1l-.022-.042-.008-.014-2.59-3.532a1.739,1.739,0,0,0-1.4-.708H523.714a1.733,1.733,0,0,0-1.4.708l-2.59,3.532-.016.028-.024.048a.379.379,0,0,0-.038.1l-.01.03-.418,2.664a2.764,2.764,0,0,0,1.784,3.03v9.048H519.74a.481.481,0,1,0,0,.962h23.9a.481.481,0,1,0,0-.962Z" transform="translate(-519.188 -514.396)" fill="#3a1d0f" opacity="0.28"/>
  </g>
</svg>
