<svg xmlns="http://www.w3.org/2000/svg" xmlns:xlink="http://www.w3.org/1999/xlink" width="19.973" height="24.988" viewBox="0 0 19.973 24.988">
  <defs>
    <clipPath id="clip-path">
      <rect width="19.973" height="24.988" fill="none"/>
    </clipPath>
  </defs>
  <g id="BagWhiteEmpyt" clip-path="url(#clip-path)">
    <g id="Group_52703" data-name="Group 52703">
      <g id="Group_52702" data-name="Group 52702">
        <g id="Group_52701" data-name="Group 52701">
          <path id="Path_17238" data-name="Path 17238" d="M927.066,482.237a.692.692,0,0,0-.689-.626h-2.936a4.933,4.933,0,0,0-9.865,0H910.64a.689.689,0,0,0-.687.628l-1.428,16.112v.064a3.558,3.558,0,0,0,3.745,3.326h12.481a3.56,3.56,0,0,0,3.747-3.326Zm-12.8,3.536a.691.691,0,0,0,.691-.69v-2.09h7.107v2.09a.69.69,0,0,0,1.38,0v-2.09h2.3l1.37,15.438a2.2,2.2,0,0,1-2.367,1.928H912.27a2.2,2.2,0,0,1-2.367-1.908l1.37-15.458h2.3v2.09A.691.691,0,0,0,914.265,485.773Zm.691-4.162a3.553,3.553,0,0,1,7.1,0Z" transform="translate(-908.525 -476.753)" fill="#fff"/>
        </g>
      </g>
    </g>
  </g>
</svg>
