<?xml version="1.0"?>
<svg xmlns="http://www.w3.org/2000/svg" height="512px" viewBox="-40 0 480 480.01581" width="512px" class=""><g><path d="m392.007812 64.015625h-80v-8c0-4.417969-3.582031-8-8-8h-96c-4.417968 0-8 3.582031-8 8v8h-77.878906l-110.121094-62.945313c-2.476562-1.429687-5.53125-1.425781-8.007812.003907-2.476562 1.433593-3.99609375 4.082031-3.9921875 6.941406v400c-.00390625 2.863281 1.5195315 5.511719 3.9999995 6.945313l112 64c.175782.101562.382813.144531.566407.230468.1875.089844.425781.183594.65625.273438.886719.347656 1.828125.535156 2.777343.550781h272c4.417969 0 8-3.582031 8-8v-400c0-4.417969-3.582031-8-8-8zm-8 16v192.199219c-5.390624.21875-10.726562.65625-16 1.289062v-169.488281c0-4.417969-3.582031-8-8-8h-48v-16zm-188 352h-36v-320h41.472657c3.378906 9.554687 12.394531 15.957031 22.527343 16h64c10.132813-.042969 19.148438-6.445313 22.527344-16h41.472656v164c-78.492187 16.167969-139.832031 77.507813-156 156zm20-368h80v40c0 4.417969-3.582031 8-8 8h-64c-4.417968 0-8-3.582031-8-8zm-200-42.207031 96 54.847656v381.597656l-96-54.878906zm112 58.207031h72v16h-48c-4.417968 0-8 3.582031-8 8v336c0 4.417969 3.582032 8 8 8h41.488282c-.632813 5.273437-1.070313 10.609375-1.289063 16h-64.199219zm80.199219 384c4.261719-95.269531 80.53125-171.539063 175.800781-175.800781v175.800781zm0 0" data-original="#000000" class="active-path" data-old_color="#000000" fill="#3A1D0F"/><path d="m176.007812 144.015625h160v16h-160zm0 0" data-original="#000000" class="active-path" data-old_color="#000000" fill="#3A1D0F"/><path d="m176.007812 176.015625h112v16h-112zm0 0" data-original="#000000" class="active-path" data-old_color="#000000" fill="#3A1D0F"/><path d="m304.007812 176.015625h32v16h-32zm0 0" data-original="#000000" class="active-path" data-old_color="#000000" fill="#3A1D0F"/><path d="m176.007812 208.015625h32v16h-32zm0 0" data-original="#000000" class="active-path" data-old_color="#000000" fill="#3A1D0F"/><path d="m224.007812 208.015625h112v16h-112zm0 0" data-original="#000000" class="active-path" data-old_color="#000000" fill="#3A1D0F"/><path d="m224.007812 272.015625h16c0-13.253906-10.746093-24-24-24v-8h-16v8c-13.253906 0-24 10.746094-24 24s10.746094 24 24 24v16c-4.417968 0-8-3.582031-8-8h-16c0 13.253906 10.746094 24 24 24v8h16v-8c13.253907 0 24-10.746094 24-24s-10.746093-24-24-24v-16c4.417969 0 8 3.582031 8 8zm0 32c0 4.417969-3.582031 8-8 8v-16c4.417969 0 8 3.582031 8 8zm-24-24c-4.417968 0-8-3.582031-8-8s3.582032-8 8-8zm0 0" data-original="#000000" class="active-path" data-old_color="#000000" fill="#3A1D0F"/></g> </svg>
