<svg xmlns="http://www.w3.org/2000/svg" xmlns:xlink="http://www.w3.org/1999/xlink" width="15.997" height="20" viewBox="0 0 15.997 20">
  <defs>
    <clipPath id="clip-path">
      <rect width="15.997" height="20" fill="none"/>
    </clipPath>
  </defs>
  <g id="LocationSmall" clip-path="url(#clip-path)">
    <g id="Group_51371" data-name="Group 51371">
      <g id="Group_51370" data-name="Group 51370">
        <g id="Group_51369" data-name="Group 51369">
          <path id="Path_16857" data-name="Path 16857" d="M992.985,535.378a8.021,8.021,0,0,0-7.853,9.522c0,.028.02.116.054.268a7.959,7.959,0,0,0,.535,1.58,22.467,22.467,0,0,0,6.914,8.5.563.563,0,0,0,.71,0,22.508,22.508,0,0,0,6.914-8.5,7.875,7.875,0,0,0,.535-1.58c.034-.152.05-.24.054-.268a8.3,8.3,0,0,0,.142-1.506,8.028,8.028,0,0,0-8-8.016Zm6.74,9.324,0,.026c0,.02-.016.084-.038.18v.008a6.689,6.689,0,0,1-.463,1.366l-.01.018a20.931,20.931,0,0,1-6.225,7.782,20.965,20.965,0,0,1-6.227-7.782l-.008-.018a7.2,7.2,0,0,1-.465-1.366v-.008c-.024-.1-.032-.16-.036-.18l-.006-.03a7.028,7.028,0,0,1-.124-1.308,6.866,6.866,0,1,1,13.606,1.312Zm0,0" transform="translate(-984.99 -535.378)" fill="#6e7990"/>
        </g>
      </g>
    </g>
    <g id="Group_51374" data-name="Group 51374" transform="translate(2.918 3.014)">
      <g id="Group_51373" data-name="Group 51373">
        <g id="Group_51372" data-name="Group 51372">
          <path id="Path_16858" data-name="Path 16858" d="M991.529,536.885a5.09,5.09,0,1,0,5.077,5.09,5.091,5.091,0,0,0-5.077-5.09Zm0,9.048a3.958,3.958,0,1,1,3.948-3.958,3.958,3.958,0,0,1-3.948,3.958Zm0,0" transform="translate(-986.453 -536.885)" fill="#6e7990"/>
        </g>
      </g>
    </g>
  </g>
</svg>
