<svg xmlns="http://www.w3.org/2000/svg" xmlns:xlink="http://www.w3.org/1999/xlink" width="47.337" height="47.333" viewBox="0 0 47.337 47.333">
  <defs>
    <clipPath id="clip-path">
      <rect width="47.337" height="47.333" fill="none"/>
    </clipPath>
  </defs>
  <g id="logout_1_" data-name="logout (1)" clip-path="url(#clip-path)">
    <g id="logout_1_2" data-name="logout (1)" transform="translate(47.337 -464.634) rotate(180)">
      <g id="Group_55140" data-name="Group 55140" transform="translate(0 -511.967)">
        <g id="Group_55139" data-name="Group 55139" transform="translate(0 0)">
          <g id="Group_55138" data-name="Group 55138">
            <path id="Path_17783" data-name="Path 17783" d="M103.189-283.736a.789.789,0,0,1-.789-.789v-4.734a.789.789,0,0,1,.789-.789.789.789,0,0,1,.789.789v4.734A.789.789,0,0,1,103.189-283.736Z" transform="translate(-92.932 310.566)" fill="#3a1d0f"/>
            <path id="Path_17784" data-name="Path 17784" d="M10.342-464.845l-7.46-2.985c-2.1-.778-2.882-1.834-2.882-3.9v-33.144c0-2.062.781-3.117,2.862-3.889l7.494-3a3.124,3.124,0,0,1,1.108-.211,2.868,2.868,0,0,1,2.737,3.152v41.035C14.2-465.536,12.412-464.066,10.342-464.845Zm2.282-43.97c0-.941-.466-1.574-1.159-1.574a1.561,1.561,0,0,0-.537.1l-7.5,3c-1.489.552-1.852,1.026-1.852,2.417v33.144c0,1.39.364,1.864,1.871,2.423l7.464,2.985a1.57,1.57,0,0,0,.551.11c.694,0,1.16-.632,1.16-1.573Z" transform="translate(0 511.967)" fill="#3a1d0f"/>
            <path id="Path_17785" data-name="Path 17785" d="M170.389-198.258h11.144a2.37,2.37,0,0,0,2.367-2.367v-11.834a.789.789,0,0,1,.789-.789.789.789,0,0,1,.789.789v11.834a3.949,3.949,0,0,1-3.945,3.945H170.389a.789.789,0,0,1-.789-.789A.789.789,0,0,1,170.389-198.258Z" transform="translate(-153.919 240.867)" fill="#3a1d0f"/>
            <path id="Path_17786" data-name="Path 17786" d="M185.657-461.213a.789.789,0,0,1-.789-.789v-11.834A2.37,2.37,0,0,0,182.5-476.2H171.456a.789.789,0,0,1-.789-.789.789.789,0,0,1,.789-.789H182.5a3.949,3.949,0,0,1,3.945,3.945V-462A.789.789,0,0,1,185.657-461.213Z" transform="translate(-154.888 480.942)" fill="#3a1d0f"/>
            <path id="Path_17787" data-name="Path 17787" d="M217.654-340.8a.789.789,0,0,1-.171.257l-7.889,7.89a.788.788,0,0,1-1.116,0,.788.788,0,0,1,0-1.116l6.543-6.544h-26.5a.789.789,0,0,1-.789-.789.789.789,0,0,1,.789-.789h26.5l-6.543-6.543a.788.788,0,0,1,0-1.116.787.787,0,0,1,.558-.231.787.787,0,0,1,.558.231l7.889,7.889a.788.788,0,0,1,.171.257A.79.79,0,0,1,217.654-340.8Z" transform="translate(-170.377 364.776)" fill="#3a1d0f"/>
          </g>
        </g>
      </g>
    </g>
  </g>
</svg>
