<svg xmlns="http://www.w3.org/2000/svg" xmlns:xlink="http://www.w3.org/1999/xlink" width="24.966" height="20.166" viewBox="0 0 24.966 20.166">
  <defs>
    <clipPath id="clip-path">
      <rect width="24.966" height="20.166" fill="none"/>
    </clipPath>
  </defs>
  <g id="StoreButUnActive" clip-path="url(#clip-path)">
    <g id="Group_53212" data-name="Group 53212">
      <g id="Group_53211" data-name="Group 53211">
        <path id="Path_17382" data-name="Path 17382" d="M775.665,838.1H774.4v-9.052a2.776,2.776,0,0,0,1.742-3.24l-.587-2.5-.01-.022a.512.512,0,0,0-.04-.1l-.022-.042-.008-.014-2.587-3.534a1.736,1.736,0,0,0-1.4-.708H755.77a1.736,1.736,0,0,0-1.4.708l-2.584,3.534-.016.028-.026.048a.454.454,0,0,0-.036.1l-.01.03-.417,2.666a2.765,2.765,0,0,0,1.782,3.032V838.1H751.8a.481.481,0,0,0,0,.962h23.866a.481.481,0,1,0,0-.962Zm-.8-10.53a1.8,1.8,0,0,1-1.42.688h-.4a1.823,1.823,0,0,1-1.806-1.672l-.028-.36h0l-.184-2.324h3.683l.5,2.126A1.814,1.814,0,0,1,774.864,827.57Zm-4.616-1.268a1.815,1.815,0,0,1-1.806,1.956h-.23a1.814,1.814,0,0,1-1.81-1.814V823.9h3.657l.16,2.026Zm-1.364-6.444.967,3.084h-3.5l-.323-3.084ZM761.82,823.9h3.623v2.542a1.812,1.812,0,1,1-3.623,0Zm3.569-.96h-3.515l.322-3.084h2.872Zm-4.482,0h-3.5l.969-3.084h2.85Zm-3.863,2.986.158-2.026h3.659v2.542a1.815,1.815,0,0,1-1.812,1.814h-.23a1.815,1.815,0,0,1-1.806-1.956Zm1.584,3.28c.064.006.128.01.192.01h.23a2.766,2.766,0,0,1,4.582,0,2.766,2.766,0,0,1,4.582,0h.23a2.566,2.566,0,0,0,.394-.032v4.648a.77.77,0,0,1-.769.77H759.4a.772.772,0,0,1-.771-.77Zm12.865-9.35a.769.769,0,0,1,.621.314l2.025,2.77h-3.282l-.967-3.084Zm-16.344.314a.772.772,0,0,1,.621-.314h1.6l-.969,3.084h-3.282Zm-2.916,5.992.354-2.262h3.653l-.182,2.324h0l-.03.36a1.82,1.82,0,0,1-1.8,1.672h-.2a1.812,1.812,0,0,1-1.788-2.094Zm1.794,11.936v-8.882h.2a2.778,2.778,0,0,0,2.295-1.232,3.067,3.067,0,0,0,.266.342,2.8,2.8,0,0,0,.883.638v4.868a1.735,1.735,0,0,0,1.732,1.732h8.668a1.733,1.733,0,0,0,1.73-1.732v-4.876a.646.646,0,0,0-.016-.086,2.772,2.772,0,0,0,.7-.544,3.082,3.082,0,0,0,.266-.342,2.779,2.779,0,0,0,2.3,1.232h.4V838.1Z" transform="translate(-751.25 -818.896)" fill="#6e798a"/>
      </g>
    </g>
  </g>
</svg>
